<svg xmlns="http://www.w3.org/2000/svg" width="179.535" height="93.774" viewBox="0 0 179.535 93.774">
  <g id="Group_4" data-name="Group 4" transform="translate(-738 -181.987)">
    <g id="Group_1" data-name="Group 1" transform="translate(740.159 181.987)">
      <path id="Path_1" data-name="Path 1" d="M743.453,229.824c2.007-3.178,8.53-8.279,13.631-12.043,10.705-7.778,14.97-10.7,14.97-17.479,0-4.014-2.593-8.447-8.2-8.447-8.279,0-8.53,6.774-8.53,11.123H743.955c0-19.4,14.133-20.991,19.4-20.991,11.374,0,20.406,6.774,20.406,18.733,0,10.454-6.523,15.3-12.378,19.318-7.861,5.6-11.875,8.2-13.3,10.956h25.758v10.37H743.453Z" transform="translate(-743.453 -181.987)" fill="#fff"/>
      <path id="Path_2" data-name="Path 2" d="M878.7,181.987c13.966,0,20.573,9.618,20.573,30.441s-6.607,30.525-20.573,30.525-20.573-9.7-20.573-30.525S864.736,181.987,878.7,181.987Zm0,51.6c6.69,0,8.53-5.854,8.53-21.158,0-15.388-1.84-21.075-8.53-21.075s-8.53,5.687-8.53,21.075C870.172,227.733,872.012,233.587,878.7,233.587Z" transform="translate(-812.719 -181.987)" fill="#fff"/>
      <path id="Path_3" data-name="Path 3" d="M972.808,229.824c2.007-3.178,8.53-8.279,13.631-12.043,10.7-7.778,14.97-10.7,14.97-17.479,0-4.014-2.593-8.447-8.2-8.447-8.279,0-8.53,6.774-8.53,11.123H973.31c0-19.4,14.134-20.991,19.4-20.991,11.374,0,20.406,6.774,20.406,18.733,0,10.454-6.523,15.3-12.377,19.318-7.861,5.6-11.876,8.2-13.3,10.956H1013.2v10.37H972.808Z" transform="translate(-881.988 -181.987)" fill="#fff"/>
      <path id="Path_4" data-name="Path 4" d="M1108.057,181.987c13.966,0,20.573,9.618,20.573,30.441s-6.607,30.525-20.573,30.525-20.573-9.7-20.573-30.525S1094.091,181.987,1108.057,181.987Zm0,51.6c6.691,0,8.53-5.854,8.53-21.158,0-15.388-1.84-21.075-8.53-21.075s-8.53,5.687-8.53,21.075C1099.527,227.733,1101.367,233.587,1108.057,233.587Z" transform="translate(-951.254 -181.987)" fill="#fff"/>
    </g>
    <g id="Group_2" data-name="Group 2" transform="translate(765.339 260.629)">
      <path id="Path_5" data-name="Path 5" d="M814.506,395.589a7.475,7.475,0,1,1,7.484-7.465A7.459,7.459,0,0,1,814.506,395.589Zm-4.41-7.465a4.39,4.39,0,1,0,4.41-4.43A4.447,4.447,0,0,0,810.1,388.124Z" transform="translate(-807.041 -380.619)" fill="#fff"/>
      <path id="Path_6" data-name="Path 6" d="M849.394,381.456h6.514c3.621,0,5,2.286,5,4.632s-1.376,4.633-5,4.633H852.57V395.9h-3.176Zm3.176,6.8h2.468c1.456,0,2.792-.323,2.792-2.165s-1.335-2.164-2.792-2.164H852.57Z" transform="translate(-832.623 -381.112)" fill="#fff"/>
      <path id="Path_7" data-name="Path 7" d="M885.626,390.042v3.075h8.152v2.671H882.551V381.3H893.09v2.67h-7.465v3.257h6.595v2.812Z" transform="translate(-852.65 -381.02)" fill="#fff"/>
      <path id="Path_8" data-name="Path 8" d="M918.633,385.865v9.993h-2.771v-14.5H919.5l6.453,9.022v-9.022h2.69v14.5h-2.69Z" transform="translate(-872.77 -381.051)" fill="#fff"/>
      <path id="Path_9" data-name="Path 9" d="M970.69,391.087c.324,1.9,2.023,2.164,3.2,2.164,1.112,0,2.812-.324,2.812-1.8,0-3.075-8.6-1.092-8.6-6.494,0-2.974,2.792-4.369,5.4-4.369,3.014,0,5.786,1.315,5.786,4.652l-3.075-.445c-.385-1.679-1.862-1.74-2.853-1.74-1.011,0-2.185.425-2.185,1.639,0,1.072.688,1.315,4.309,2.185,1.072.263,4.289.93,4.289,4.208,0,2.65-2.063,4.632-6.008,4.632-3.237,0-6.15-1.578-6.15-5.138Z" transform="translate(-904.031 -380.588)" fill="#fff"/>
      <path id="Path_10" data-name="Path 10" d="M1007.929,395.589a7.475,7.475,0,1,1,7.485-7.465A7.459,7.459,0,0,1,1007.929,395.589Zm-4.41-7.465a4.39,4.39,0,1,0,4.41-4.43A4.447,4.447,0,0,0,1003.52,388.124Z" transform="translate(-923.873 -380.619)" fill="#fff"/>
      <path id="Path_11" data-name="Path 11" d="M1054.984,390.438c0,3.9-2.306,5.805-6.17,5.805-3.9,0-6.15-1.861-6.15-5.805v-8.982h3.177v8.982c0,1.578.4,3.135,2.973,3.135,2.265,0,2.994-.971,2.994-3.135v-8.982h3.176Z" transform="translate(-949.362 -381.112)" fill="#fff"/>
      <path id="Path_12" data-name="Path 12" d="M1088.909,390.559l4.046,5.36h-3.884l-3.641-5.2h-1.558v5.2h-3.2V381.456h6.513c3.641,0,5.037,2.286,5.037,4.632a4.327,4.327,0,0,1-3.439,4.471Zm-5.037-6.635v4.349h2.468c1.517,0,2.772-.344,2.772-2.185,0-1.881-1.254-2.164-2.772-2.164Z" transform="translate(-972.322 -381.112)" fill="#fff"/>
      <path id="Path_13" data-name="Path 13" d="M1122.943,395.693a7.323,7.323,0,1,1,6.352-10.9c-1.234.647-1.335.708-2.711,1.376a4.207,4.207,0,0,0-3.641-2.084,4.289,4.289,0,0,0,0,8.577,4.215,4.215,0,0,0,3.763-2.246c1.376.708,1.416.789,2.711,1.376A7.265,7.265,0,0,1,1122.943,395.693Z" transform="translate(-993.428 -380.865)" fill="#fff"/>
      <path id="Path_14" data-name="Path 14" d="M1157.575,390.042v3.075h8.152v2.671H1154.5V381.3h10.539v2.67h-7.464v3.257h6.595v2.812Z" transform="translate(-1016.913 -381.02)" fill="#fff"/>
    </g>
    <g id="Group_3" data-name="Group 3" transform="translate(738 256.437)">
      <circle id="Ellipse_1" data-name="Ellipse 1" cx="3.801" cy="3.801" r="3.801" fill="#fff"/>
      <circle id="Ellipse_2" data-name="Ellipse 2" cx="3.801" cy="3.801" r="3.801" transform="translate(0 11.404)" fill="#fff"/>
      <circle id="Ellipse_3" data-name="Ellipse 3" cx="3.801" cy="3.801" r="3.801" transform="translate(11.024)" fill="#fff"/>
      <circle id="Ellipse_4" data-name="Ellipse 4" cx="3.801" cy="3.801" r="3.801" transform="translate(11.024 11.404)" fill="#fff"/>
    </g>
  </g>
</svg>
