<svg xmlns="http://www.w3.org/2000/svg" width="336.65" height="66.61" viewBox="0 0 336.65 66.61">
  <g id="Group_5" data-name="Group 5" transform="translate(-380.908 -622.977)">
    <g id="Group_3" data-name="Group 3" transform="translate(380.908 622.977)">
      <path id="Path_1" data-name="Path 1" d="M380.908,627.4h8.038v30.026h.277c1.663-2.4,3.325-4.619,4.9-6.651L413.15,627.4h9.977l-22.542,26.423,24.3,35.846h-9.515l-20.51-30.58-5.913,6.837v23.743h-8.038Z" transform="translate(-380.908 -624.077)" fill="#0e3150"/>
      <path id="Path_2" data-name="Path 2" d="M486.568,672.413c0,16.537-11.456,23.743-22.264,23.743-12.1,0-21.433-8.87-21.433-23,0-14.966,9.792-23.743,22.172-23.743C477.884,649.409,486.568,658.74,486.568,672.413Zm-35.476.463c0,9.792,5.636,17.183,13.58,17.183,7.76,0,13.581-7.3,13.581-17.368,0-7.576-3.788-17.185-13.4-17.185S451.092,664.376,451.092,672.876Z" transform="translate(-396.308 -629.546)" fill="#0e3150"/>
      <path id="Path_3" data-name="Path 3" d="M552.214,622.977v54.045c0,3.974.092,8.5.369,11.549h-7.3l-.37-7.76h-.185c-2.494,4.988-7.945,8.776-15.243,8.776-10.809,0-19.123-9.147-19.123-22.727-.092-14.874,9.146-24.02,20.048-24.02,6.836,0,11.455,3.234,13.488,6.837h.185v-26.7Zm-8.13,39.078a14.343,14.343,0,0,0-.37-3.418,11.955,11.955,0,0,0-11.733-9.423c-8.407,0-13.4,7.391-13.4,17.275,0,9.054,4.435,16.537,13.211,16.537a12.222,12.222,0,0,0,11.918-9.7,14.11,14.11,0,0,0,.37-3.51Z" transform="translate(-413.082 -622.977)" fill="#0e3150"/>
      <path id="Path_4" data-name="Path 4" d="M587.462,674.261c.185,10.993,7.206,15.522,15.336,15.522a29.413,29.413,0,0,0,12.38-2.31l1.386,5.82a36.22,36.22,0,0,1-14.874,2.771c-13.765,0-21.988-9.054-21.988-22.542s7.945-24.112,20.971-24.112c14.6,0,18.477,12.842,18.477,21.064a30.684,30.684,0,0,1-.277,3.788ZM611.3,668.44c.092-5.173-2.125-13.211-11.271-13.211-8.223,0-11.825,7.576-12.472,13.211Z" transform="translate(-430.315 -629.546)" fill="#0e3150"/>
      <path id="Path_5" data-name="Path 5" d="M683.145,622.977v54.045c0,3.974.092,8.5.37,11.549h-7.3l-.37-7.76h-.185c-2.494,4.988-7.945,8.776-15.244,8.776-10.809,0-19.123-9.147-19.123-22.727-.092-14.874,9.146-24.02,20.048-24.02,6.836,0,11.455,3.234,13.488,6.837h.185v-26.7Zm-8.13,39.078a14.343,14.343,0,0,0-.37-3.418,11.956,11.956,0,0,0-11.733-9.423c-8.407,0-13.4,7.391-13.4,17.275,0,9.054,4.435,16.537,13.212,16.537a12.222,12.222,0,0,0,11.917-9.7,14.11,14.11,0,0,0,.37-3.51Z" transform="translate(-445.623 -622.977)" fill="#0e3150"/>
      <path id="Path_6" data-name="Path 6" d="M723.653,632.361c.092,2.771-1.94,4.989-5.173,4.989a4.835,4.835,0,0,1-4.9-4.989,4.954,4.954,0,0,1,5.081-5.081A4.826,4.826,0,0,1,723.653,632.361ZM714.6,689.64V644.926h8.13V689.64Z" transform="translate(-463.589 -624.046)" fill="#0e3150"/>
      <path id="Path_7" data-name="Path 7" d="M774.507,693.508a29.947,29.947,0,0,1-12.842,2.587c-13.488,0-22.264-9.147-22.264-22.819,0-13.765,9.423-23.743,24.02-23.743a27.2,27.2,0,0,1,11.271,2.309l-1.848,6.283A18.849,18.849,0,0,0,763.421,656c-10.255,0-15.8,7.575-15.8,16.906,0,10.346,6.652,16.722,15.521,16.722a23.1,23.1,0,0,0,9.978-2.218Z" transform="translate(-470.006 -629.577)" fill="#0e3150"/>
      <path id="Path_8" data-name="Path 8" d="M808.49,633.673v12.842h11.64V652.7H808.49v24.113c0,5.544,1.571,8.685,6.1,8.685a18.067,18.067,0,0,0,4.712-.555l.37,6.1a19.914,19.914,0,0,1-7.207,1.108c-3.787,0-6.836-1.2-8.776-3.418-2.309-2.4-3.141-6.374-3.141-11.64V652.7h-6.928v-6.189h6.928V635.8Z" transform="translate(-483.48 -625.635)" fill="#0e3150"/>
    </g>
    <g id="Group_4" data-name="Group 4" transform="translate(439.983 657.227)">
      <path id="Path_9" data-name="Path 9" d="M478.047,685.637V670.475a9.026,9.026,0,0,1,0,15.162Z" transform="translate(-464.125 -669.031)" fill="#f92f2f"/>
      <path id="Path_10" data-name="Path 10" d="M462.478,671.674v13.36a9.023,9.023,0,0,1,0-13.36Z" transform="translate(-459.521 -669.329)" fill="#f92f2f"/>
      <path id="Path_11" data-name="Path 11" d="M470.42,686.6a9.015,9.015,0,0,1-3.358-.645V669.2a9.071,9.071,0,0,1,5.544-.379v17.515A9.042,9.042,0,0,1,470.42,686.6Z" transform="translate(-461.395 -668.554)" fill="#f92f2f"/>
    </g>
  </g>
</svg>
